<svg id="Capa_1" enable-background="new 0 0 512.005 512.005" height="512" viewBox="0 0 512.005 512.005" width="512" xmlns="http://www.w3.org/2000/svg"><g><path d="m497.002 202.004h-26v-45c0-8.284-6.716-15-15-15h-20.054l-56.128-132.839c-3.225-7.631-12.027-11.202-19.656-7.979-7.631 3.225-11.203 12.024-7.979 19.656l51.195 121.162h-7.378c-8.284 0-15 6.716-15 15v45h-250v-45c0-8.284-6.716-15-15-15h-7.378l51.196-121.162c3.224-7.631-.348-16.431-7.979-19.656-7.629-3.222-16.431.347-19.656 7.979l-56.129 132.839h-20.054c-8.284 0-15 6.716-15 15v45h-23.932c-9.411 0-17.068 7.657-17.068 17.068v55.864c0 9.411 7.657 17.068 17.068 17.068h16.413l37.761 207.683c1.297 7.132 7.509 12.317 14.758 12.317h84.962c.007 0 .014.001.021.001s.014-.001.021-.001h169.992c.007 0 .014.001.021.001s.014-.001.021-.001h84.962c7.25 0 13.461-5.185 14.758-12.317l37.761-207.683h18.481c8.284 0 15-6.716 15-15v-60c0-8.285-6.716-15-15-15zm-86-30h14.9c.036 0 .071.004.107.004.026 0 .053-.004.079-.004h14.914v30h-30zm-340 0h14.914c.026 0 .053.004.079.004.036 0 .071-.004.107-.004h14.9v30h-30zm-7.027 120h73.329l17.273 190h-56.056zm280.602 0-17.273 190h-56.302v-190zm-103.575 190h-56.302l-17.273-190h73.574v190zm172.482 0h-56.056l17.273-190h73.329zm68.518-220h-452v-30h452z"/></g></svg>